<?xml version="1.0" standalone="no"?>
<!DOCTYPE svg PUBLIC "-//W3C//DTD SVG 20010904//EN"
 "http://www.w3.org/TR/2001/REC-SVG-20010904/DTD/svg10.dtd">
<svg version="1.0" xmlns="http://www.w3.org/2000/svg"
 width="400.000000pt" height="400.000000pt" viewBox="0 0 400.000000 400.000000"
 preserveAspectRatio="xMidYMid meet">
<metadata>
Created by potrace 1.14, written by Peter Selinger 2001-2017
</metadata>
<g transform="translate(0.000000,400.000000) scale(0.100000,-0.100000)"
fill="#000000" stroke="none">
<path d="M2990 3237 c-48 -14 -217 -186 -302 -307 -37 -52 -88 -137 -113 -187
-26 -51 -53 -93 -59 -93 -7 0 -51 13 -98 29 -330 115 -635 128 -911 40 l-60
-19 -54 47 c-30 27 -71 62 -91 78 -21 17 -89 73 -152 126 -233 194 -227 189
-273 189 -77 0 -82 -10 -81 -157 3 -241 45 -531 109 -745 41 -136 41 -143 15
-227 -50 -158 -64 -379 -35 -541 16 -90 18 -141 9 -176 l-6 -22 -71 19 c-105
28 -292 59 -345 58 -47 -1 -47 -1 43 -30 50 -17 148 -45 219 -64 71 -19 131
-36 133 -39 3 -3 -1 -22 -8 -43 -6 -21 -15 -63 -18 -93 l-6 -55 -125 -7 c-69
-4 -141 -10 -160 -14 -19 -4 -41 -8 -48 -10 -8 -1 -17 -5 -20 -9 -4 -4 76 -5
177 -4 154 3 186 1 192 -11 48 -93 78 -164 72 -170 -4 -4 -63 -22 -130 -41
-68 -19 -123 -38 -123 -42 0 -10 31 -6 193 25 l107 20 51 -46 c69 -62 156
-118 245 -156 41 -18 74 -36 74 -40 0 -3 -37 -45 -83 -91 -95 -98 -311 -409
-295 -425 3 -2 471 -3 1040 -2 l1035 3 -75 130 c-139 243 -243 364 -365 426
-32 16 -55 33 -53 38 3 5 46 32 95 61 49 29 111 70 137 92 55 45 39 46 224
-11 152 -46 193 -52 145 -21 -41 26 -230 100 -256 100 -29 0 -23 12 56 114
l66 86 172 1 c186 2 179 9 -28 30 -60 6 -111 13 -113 14 -2 2 17 47 41 101 24
55 47 107 50 116 7 20 -1 18 207 56 85 16 154 33 152 38 -3 12 -223 8 -280 -4
-40 -9 -42 -9 -42 13 0 12 5 47 10 76 23 120 9 318 -34 487 -14 54 -15 66 -3
89 122 242 150 898 48 1129 -33 75 -106 100 -201 71z"/>
</g>
</svg>
